# xmcd CD database file
#
# Track frame offsets:
#	150
#	21160
#	41460
#	61127
#	81022
#	100561
#	115212
#	136275
#	156525
#
# Disc length: 2410 seconds
#
# Revision: 5
# Processed by: cddbd v1.5.2PL0 Copyright (c) Steve Scherf et al.
# Submitted via: CDex 1.50beta8
#
DISCID=6a096809
DTITLE=井上陽水 - 9.5カラット
DYEAR=1984
DGENRE=Folk
TTITLE0=はーばーらいと
TTITLE1=ダンスはうまく踊れない
TTITLE2=TRANSIT
TTITLE3=A、B、C、D
TTITLE4=恋の予感
TTITLE5=いっそセレナーデ
TTITLE6=飾りじゃないのよ涙は
TTITLE7=からたちの花
TTITLE8=ワインレッドの心
EXTD=YEAR: 1984
EXTT0=
EXTT1=
EXTT2=
EXTT3=
EXTT4=
EXTT5=
EXTT6=
EXTT7=
EXTT8=
PLAYORDER=
